<?xml version="1.0" encoding="UTF-8" standalone="no"?>
<!DOCTYPE svg PUBLIC "-//W3C//DTD SVG 1.1//EN"
 "http://www.w3.org/Graphics/SVG/1.1/DTD/svg11.dtd">
<!-- Generated by graphviz version 2.40.1 (20161225.0304)
 -->
<!-- Title: WFSA Pages: 1 -->
<svg width="339pt" height="75pt"
 viewBox="0.00 0.00 339.00 75.00" xmlns="http://www.w3.org/2000/svg" xmlns:xlink="http://www.w3.org/1999/xlink">
<g id="graph0" class="graph" transform="scale(1 1) rotate(0) translate(4 71)">
<title>WFSA</title>
<polygon fill="#ffffff" stroke="transparent" points="-4,4 -4,-71 335,-71 335,4 -4,4"/>
<text text-anchor="middle" x="165.5" y="-7.8" font-family="Times,serif" font-size="14.00" fill="#000000">After top&#45;sort</text>
<!-- 0 -->
<g id="node1" class="node">
<title>0</title>
<ellipse fill="none" stroke="#000000" stroke-width="2" cx="18" cy="-45" rx="18" ry="18"/>
<text text-anchor="middle" x="18" y="-41.3" font-family="Times,serif" font-size="14.00" fill="#000000">0</text>
</g>
<!-- 1 -->
<g id="node2" class="node">
<title>1</title>
<ellipse fill="none" stroke="#000000" stroke-width="2" cx="112" cy="-45" rx="18" ry="18"/>
<text text-anchor="middle" x="112" y="-41.3" font-family="Times,serif" font-size="14.00" fill="#000000">1</text>
</g>
<!-- 0&#45;&gt;1 -->
<g id="edge1" class="edge">
<title>0&#45;&gt;1</title>
<path fill="none" stroke="#000000" d="M36.1241,-45C49.6484,-45 68.3808,-45 83.8486,-45"/>
<polygon fill="#000000" stroke="#000000" points="83.9315,-48.5001 93.9315,-45 83.9315,-41.5001 83.9315,-48.5001"/>
<text text-anchor="middle" x="65" y="-48.8" font-family="Times,serif" font-size="14.00" fill="#000000">1/0.1</text>
</g>
<!-- 2 -->
<g id="node3" class="node">
<title>2</title>
<ellipse fill="none" stroke="#000000" stroke-width="2" cx="206" cy="-45" rx="18" ry="18"/>
<text text-anchor="middle" x="206" y="-41.3" font-family="Times,serif" font-size="14.00" fill="#000000">2</text>
</g>
<!-- 1&#45;&gt;2 -->
<g id="edge2" class="edge">
<title>1&#45;&gt;2</title>
<path fill="none" stroke="#000000" d="M130.1241,-45C143.6484,-45 162.3808,-45 177.8486,-45"/>
<polygon fill="#000000" stroke="#000000" points="177.9315,-48.5001 187.9315,-45 177.9315,-41.5001 177.9315,-48.5001"/>
<text text-anchor="middle" x="159" y="-48.8" font-family="Times,serif" font-size="14.00" fill="#000000">2/0.2</text>
</g>
<!-- 3 -->
<g id="node4" class="node">
<title>3</title>
<ellipse fill="none" stroke="#000000" stroke-width="2" cx="309" cy="-45" rx="18" ry="18"/>
<ellipse fill="none" stroke="#000000" stroke-width="2" cx="309" cy="-45" rx="22" ry="22"/>
<text text-anchor="middle" x="309" y="-41.3" font-family="Times,serif" font-size="14.00" fill="#000000">3</text>
</g>
<!-- 2&#45;&gt;3 -->
<g id="edge3" class="edge">
<title>2&#45;&gt;3</title>
<path fill="none" stroke="#000000" d="M224.4143,-45C238.8858,-45 259.4016,-45 276.604,-45"/>
<polygon fill="#000000" stroke="#000000" points="276.8031,-48.5001 286.8031,-45 276.803,-41.5001 276.8031,-48.5001"/>
<text text-anchor="middle" x="255.5" y="-48.8" font-family="Times,serif" font-size="14.00" fill="#000000">&#45;1/0.3</text>
</g>
</g>
</svg>
