<?xml version="1.0" encoding="UTF-8" standalone="no"?>
<!DOCTYPE svg PUBLIC "-//W3C//DTD SVG 1.1//EN"
 "http://www.w3.org/Graphics/SVG/1.1/DTD/svg11.dtd">
<!-- Generated by graphviz version 2.40.1 (20161225.0304)
 -->
<!-- Title: WFSA Pages: 1 -->
<svg width="151pt" height="138pt"
 viewBox="0.00 0.00 151.00 138.00" xmlns="http://www.w3.org/2000/svg" xmlns:xlink="http://www.w3.org/1999/xlink">
<g id="graph0" class="graph" transform="scale(1 1) rotate(0) translate(4 134)">
<title>WFSA</title>
<polygon fill="#ffffff" stroke="transparent" points="-4,4 -4,-134 147,-134 147,4 -4,4"/>
<text text-anchor="middle" x="71.5" y="-7.8" font-family="Times,serif" font-size="14.00" fill="#000000">Before arc&#45;sort</text>
<!-- 0 -->
<g id="node1" class="node">
<title>0</title>
<ellipse fill="none" stroke="#000000" stroke-width="2" cx="18" cy="-70" rx="18" ry="18"/>
<text text-anchor="middle" x="18" y="-66.3" font-family="Times,serif" font-size="14.00" fill="#000000">0</text>
</g>
<!-- 2 -->
<g id="node2" class="node">
<title>2</title>
<ellipse fill="none" stroke="#000000" stroke-width="2" cx="121" cy="-108" rx="18" ry="18"/>
<ellipse fill="none" stroke="#000000" stroke-width="2" cx="121" cy="-108" rx="22" ry="22"/>
<text text-anchor="middle" x="121" y="-104.3" font-family="Times,serif" font-size="14.00" fill="#000000">2</text>
</g>
<!-- 0&#45;&gt;2 -->
<g id="edge1" class="edge">
<title>0&#45;&gt;2</title>
<path fill="none" stroke="#000000" d="M35.0084,-76.2749C50.0501,-81.8243 72.3569,-90.054 90.4815,-96.7408"/>
<polygon fill="#000000" stroke="#000000" points="89.4544,-100.0924 100.0478,-100.2701 91.8774,-93.5251 89.4544,-100.0924"/>
<text text-anchor="middle" x="67.5" y="-96.8" font-family="Times,serif" font-size="14.00" fill="#000000">&#45;1/0.1</text>
</g>
<!-- 1 -->
<g id="node3" class="node">
<title>1</title>
<ellipse fill="none" stroke="#000000" stroke-width="2" cx="121" cy="-41" rx="18" ry="18"/>
<text text-anchor="middle" x="121" y="-37.3" font-family="Times,serif" font-size="14.00" fill="#000000">1</text>
</g>
<!-- 0&#45;&gt;1 -->
<g id="edge2" class="edge">
<title>0&#45;&gt;1</title>
<path fill="none" stroke="#000000" d="M35.4725,-65.0805C51.3795,-60.6019 75.126,-53.916 93.5639,-48.7247"/>
<polygon fill="#000000" stroke="#000000" points="94.7646,-52.0228 103.4417,-45.9436 92.8674,-45.2848 94.7646,-52.0228"/>
<text text-anchor="middle" x="67.5" y="-63.8" font-family="Times,serif" font-size="14.00" fill="#000000">2/0.2</text>
</g>
<!-- 0&#45;&gt;1 -->
<g id="edge3" class="edge">
<title>0&#45;&gt;1</title>
<path fill="none" stroke="#000000" d="M27.23,-54.4971C32.954,-46.467 41.1028,-37.4345 51,-33 64.5207,-26.9419 80.9175,-28.4075 94.442,-31.6333"/>
<polygon fill="#000000" stroke="#000000" points="93.5556,-35.0197 104.1291,-34.3478 95.4444,-28.2793 93.5556,-35.0197"/>
<text text-anchor="middle" x="67.5" y="-36.8" font-family="Times,serif" font-size="14.00" fill="#000000">1/0.3</text>
</g>
</g>
</svg>
