<?xml version="1.0" encoding="UTF-8" standalone="no"?>
<!DOCTYPE svg PUBLIC "-//W3C//DTD SVG 1.1//EN"
 "http://www.w3.org/Graphics/SVG/1.1/DTD/svg11.dtd">
<!-- Generated by graphviz version 2.40.1 (20161225.0304)
 -->
<!-- Title: WFSA Pages: 1 -->
<svg width="151pt" height="138pt"
 viewBox="0.00 0.00 151.00 138.00" xmlns="http://www.w3.org/2000/svg" xmlns:xlink="http://www.w3.org/1999/xlink">
<g id="graph0" class="graph" transform="scale(1 1) rotate(0) translate(4 134)">
<title>WFSA</title>
<polygon fill="#ffffff" stroke="transparent" points="-4,4 -4,-134 147,-134 147,4 -4,4"/>
<text text-anchor="middle" x="71.5" y="-7.8" font-family="Times,serif" font-size="14.00" fill="#000000">Before connect</text>
<!-- 0 -->
<g id="node1" class="node">
<title>0</title>
<ellipse fill="none" stroke="#000000" stroke-width="2" cx="18" cy="-83" rx="18" ry="18"/>
<text text-anchor="middle" x="18" y="-79.3" font-family="Times,serif" font-size="14.00" fill="#000000">0</text>
</g>
<!-- 1 -->
<g id="node2" class="node">
<title>1</title>
<ellipse fill="none" stroke="#000000" stroke-width="2" cx="121" cy="-112" rx="18" ry="18"/>
<text text-anchor="middle" x="121" y="-108.3" font-family="Times,serif" font-size="14.00" fill="#000000">1</text>
</g>
<!-- 0&#45;&gt;1 -->
<g id="edge1" class="edge">
<title>0&#45;&gt;1</title>
<path fill="none" stroke="#000000" d="M34.0889,-91.8676C39.3546,-94.4777 45.3142,-97.1313 51,-99 64.3939,-103.402 79.7488,-106.4621 92.6582,-108.5022"/>
<polygon fill="#000000" stroke="#000000" points="92.4303,-112.0058 102.8302,-109.983 93.4388,-105.0789 92.4303,-112.0058"/>
<text text-anchor="middle" x="67.5" y="-109.8" font-family="Times,serif" font-size="14.00" fill="#000000">2/0.2</text>
</g>
<!-- 0&#45;&gt;1 -->
<g id="edge3" class="edge">
<title>0&#45;&gt;1</title>
<path fill="none" stroke="#000000" d="M35.6739,-78.5231C49.3103,-75.9285 68.4142,-74.1951 84,-80 90.3719,-82.3732 96.3772,-86.3919 101.622,-90.7947"/>
<polygon fill="#000000" stroke="#000000" points="99.4819,-93.5849 109.1811,-97.8483 104.2576,-88.4669 99.4819,-93.5849"/>
<text text-anchor="middle" x="67.5" y="-83.8" font-family="Times,serif" font-size="14.00" fill="#000000">1/0.3</text>
</g>
<!-- 2 -->
<g id="node3" class="node">
<title>2</title>
<ellipse fill="none" stroke="#000000" stroke-width="2" cx="121" cy="-45" rx="18" ry="18"/>
<ellipse fill="none" stroke="#000000" stroke-width="2" cx="121" cy="-45" rx="22" ry="22"/>
<text text-anchor="middle" x="121" y="-41.3" font-family="Times,serif" font-size="14.00" fill="#000000">2</text>
</g>
<!-- 0&#45;&gt;2 -->
<g id="edge2" class="edge">
<title>0&#45;&gt;2</title>
<path fill="none" stroke="#000000" d="M31.1191,-70.1881C36.8048,-65.3292 43.8027,-60.2015 51,-57 62.6759,-51.8063 76.3709,-48.8511 88.5366,-47.1731"/>
<polygon fill="#000000" stroke="#000000" points="89.2082,-50.6191 98.7447,-46.0032 88.4111,-43.6647 89.2082,-50.6191"/>
<text text-anchor="middle" x="67.5" y="-60.8" font-family="Times,serif" font-size="14.00" fill="#000000">&#45;1/0.1</text>
</g>
</g>
</svg>
